<?xml version="1.0" encoding="UTF-8" standalone="no"?>
<!-- Created with Inkscape (http://www.inkscape.org/) -->

<svg
   xmlns:dc="http://purl.org/dc/elements/1.1/"
   xmlns:cc="http://creativecommons.org/ns#"
   xmlns:rdf="http://www.w3.org/1999/02/22-rdf-syntax-ns#"
   xmlns:svg="http://www.w3.org/2000/svg"
   xmlns="http://www.w3.org/2000/svg"
   xmlns:xlink="http://www.w3.org/1999/xlink"
   xmlns:sodipodi="http://sodipodi.sourceforge.net/DTD/sodipodi-0.dtd"
   xmlns:inkscape="http://www.inkscape.org/namespaces/inkscape"
   width="188.29013mm"
   height="44.954224mm"
   viewBox="0 0 667.16974 159.28661"
   id="svg2"
   version="1.1"
   inkscape:version="0.91 r13725"
   sodipodi:docname="equanic-text-caps-dosis-plain-wide.svg">
  <defs
     id="defs4">
    <linearGradient
       inkscape:collect="always"
       id="linearGradient4293">
      <stop
         style="stop-color:#ffffff;stop-opacity:1;"
         offset="0"
         id="stop4295" />
      <stop
         style="stop-color:#ffffff;stop-opacity:0;"
         offset="1"
         id="stop4297" />
    </linearGradient>
    <linearGradient
       inkscape:collect="always"
       xlink:href="#linearGradient4293"
       id="linearGradient4299"
       x1="163.67999"
       y1="618.3822"
       x2="423.03751"
       y2="618.3822"
       gradientUnits="userSpaceOnUse" />
    <linearGradient
       inkscape:collect="always"
       xlink:href="#linearGradient4293"
       id="linearGradient4301" />
    <linearGradient
       inkscape:collect="always"
       xlink:href="#linearGradient4293"
       id="linearGradient4303"
       x1="440.32001"
       y1="-608.11218"
       x2="525.09998"
       y2="-608.11218"
       gradientUnits="userSpaceOnUse" />
    <linearGradient
       inkscape:collect="always"
       xlink:href="#linearGradient4293"
       id="linearGradient4305"
       x1="546.94"
       y1="609.11218"
       x2="751.76312"
       y2="609.11218"
       gradientUnits="userSpaceOnUse" />
  </defs>
  <sodipodi:namedview
     id="base"
     pagecolor="#ffffff"
     bordercolor="#666666"
     borderopacity="1.0"
     inkscape:pageopacity="0.0"
     inkscape:pageshadow="2"
     inkscape:zoom="1"
     inkscape:cx="312.00007"
     inkscape:cy="45.163281"
     inkscape:document-units="px"
     inkscape:current-layer="text4154"
     showgrid="false"
     showguides="true"
     inkscape:guide-bbox="true"
     inkscape:window-width="1396"
     inkscape:window-height="856"
     inkscape:window-x="44"
     inkscape:window-y="0"
     inkscape:window-maximized="1"
     fit-margin-top="1"
     fit-margin-left="1"
     fit-margin-right="1"
     fit-margin-bottom="1">
    <sodipodi:guide
       position="-139.13669,-14.836717"
       orientation="1,0"
       id="guide4140" />
    <sodipodi:guide
       position="-51.136694,22.16328"
       orientation="0,1"
       id="guide4142" />
    <sodipodi:guide
       position="-71.136697,157.16327"
       orientation="0,1"
       id="guide4144" />
  </sodipodi:namedview>
  <metadata
     id="metadata7">
    <rdf:RDF>
      <cc:Work
         rdf:about="">
        <dc:format>image/svg+xml</dc:format>
        <dc:type
           rdf:resource="http://purl.org/dc/dcmitype/StillImage" />
        <dc:title></dc:title>
      </cc:Work>
    </rdf:RDF>
  </metadata>
  <g
     inkscape:label="EQU"
     inkscape:groupmode="layer"
     id="layer1"
     transform="translate(-114.13669,-538.23888)">
    <g
       style="font-style:normal;font-weight:normal;font-size:40px;line-height:125%;font-family:sans-serif;letter-spacing:0px;word-spacing:0px;fill:#FFFFFF;fill-opacity:1;stroke:none;stroke-width:1px;stroke-linecap:butt;stroke-linejoin:miter;stroke-opacity:1"
       id="text4136">
      <path
         d="m 117.68,669.68218 0,-122.4 q 0,-2.16 1.62,-3.24 1.62,-1.26 3.78,-1.26 l 64.08,0 q 4.5,0 4.5,5.22 0,2.34 -1.26,4.14 -1.08,1.62 -3.24,1.62 l -57.6,0 0,49.5 28.26,0 q 2.16,0 3.24,1.62 1.26,1.44 1.26,3.78 0,4.86 -4.5,4.86 l -28.26,0 0,49.86 57.6,0 q 1.98,0 3.24,1.62 1.26,1.62 1.26,3.96 0,5.4 -4.5,5.4 l -64.08,0 q -2.16,0 -3.78,-1.26 -1.62,-1.26 -1.62,-3.42 z"
         style="font-style:normal;font-variant:normal;font-weight:normal;font-stretch:normal;font-size:180px;line-height:125%;font-family:Dosis;-inkscape-font-specification:'Dosis, Normal';text-align:start;writing-mode:lr-tb;text-anchor:start;fill:#FFFFFF;fill-opacity:1;stroke:none;stroke-opacity:1"
         id="path4954"
         inkscape:connector-curvature="0" />
      <path
         d="m 221.18531,636.92218 0,-55.8 q 0,-19.8 10.08,-28.98 10.26,-9.36 27.36,-9.36 17.1,0 27.18,9.36 10.26,9.18 10.26,28.98 l 0,55.8 q 0,18.54 -8.82,27.9 -8.82,9.36 -23.94,10.44 l 0,14.22 q 0,2.16 -1.44,3.24 -1.26,1.26 -3.06,1.26 -1.98,0 -3.42,-1.26 -1.26,-1.08 -1.26,-3.24 l 0,-14.22 q -15.3,-1.08 -24.12,-10.26 -8.82,-9.36 -8.82,-28.08 z m 11.88,0 q 0,24.66 21.06,27 l 0,-13.32 q 0,-4.32 4.68,-4.32 4.5,0 4.5,4.32 l 0,13.32 q 20.88,-2.52 20.88,-27 l 0,-55.8 q 0,-27.36 -25.56,-27.36 -25.56,0 -25.56,27.36 l 0,55.8 z"
         style="font-style:normal;font-variant:normal;font-weight:normal;font-stretch:normal;font-size:180px;line-height:125%;font-family:Dosis;-inkscape-font-specification:'Dosis, Normal';text-align:start;writing-mode:lr-tb;text-anchor:start;fill:#FFFFFF;fill-opacity:1;stroke:none;stroke-opacity:1"
         id="path4956"
         inkscape:connector-curvature="0" />
      <path
         d="m 332.6575,638.36218 0,-92.52 q 0,-3.06 3.24,-3.06 3.24,0 3.24,3.06 l 0,92.52 q 0,15.3 7.38,23.04 7.38,7.56 21.24,7.56 13.86,0 21.24,-7.56 7.56,-7.74 7.56,-23.04 l 0,-92.52 q 0,-3.06 3.24,-3.06 3.24,0 3.24,3.06 l 0,92.52 q 0,19.26 -9.72,28.26 -9.54,8.82 -25.56,8.82 -16.02,0 -25.56,-8.82 -9.54,-9 -9.54,-28.26 z"
         style="font-style:normal;font-variant:normal;font-weight:200;font-stretch:normal;font-size:180px;line-height:125%;font-family:Dosis;-inkscape-font-specification:'Dosis, Ultra-Light';text-align:start;writing-mode:lr-tb;text-anchor:start;fill:#FFFFFF;fill-opacity:1;stroke:none;stroke-opacity:1"
         id="path4958"
         inkscape:connector-curvature="0" />
    </g>
    <g
       style="font-style:normal;font-weight:normal;font-size:40px;line-height:125%;font-family:sans-serif;letter-spacing:0px;word-spacing:0px;fill:#FFFFFF;fill-opacity:1;stroke:none;stroke-width:1px;stroke-linecap:butt;stroke-linejoin:miter;stroke-opacity:1"
       id="text4289" />
  </g>
  <g
     transform="translate(-114.13669,-538.23888)"
     id="g4146"
     inkscape:groupmode="layer"
     inkscape:label="A">
    <g
       transform="matrix(1,0,0,-1,-4,0)"
       style="font-style:normal;font-weight:normal;font-size:40px;line-height:125%;font-family:sans-serif;letter-spacing:0px;word-spacing:0px;fill:#FFFFFF;fill-opacity:1;stroke:none;stroke-width:1px;stroke-linecap:butt;stroke-linejoin:miter;stroke-opacity:1"
       id="text4148">
      <path
         d="m 440.32,-671.56218 q 0,-2.88 3.24,-2.88 2.52,0 3.24,2.34 l 36,116.64 35.82,-116.64 q 0.72,-2.34 2.88,-2.34 1.44,0 2.52,0.9 1.08,0.9 1.08,2.16 0,0.18 -0.18,0.54 0,0.18 0,0.36 l -38.7,126.18 q -0.9,2.52 -3.42,2.52 -2.52,0 -3.24,-2.52 l -39.06,-126.18 q -0.18,-0.36 -0.18,-1.08 z"
         style="font-style:normal;font-variant:normal;font-weight:200;font-stretch:normal;font-size:180px;line-height:125%;font-family:Dosis;-inkscape-font-specification:'Dosis, Ultra-Light';text-align:start;writing-mode:lr-tb;text-anchor:start;fill:#FFFFFF;fill-opacity:1;stroke:none;stroke-opacity:1"
         id="path4962"
         inkscape:connector-curvature="0" />
    </g>
  </g>
  <g
     transform="translate(-114.13669,-538.23888)"
     id="g4152"
     inkscape:groupmode="layer"
     inkscape:label="NIC">
    <g
       style="font-style:normal;font-weight:normal;font-size:40px;line-height:125%;font-family:sans-serif;letter-spacing:0px;word-spacing:0px;fill:#FFFFFF;fill-opacity:1;stroke:none;stroke-width:1px;stroke-linecap:butt;stroke-linejoin:miter;stroke-opacity:1"
       id="text4154"
       transform="translate(-6,0)">
      <path
         d="m 562.94,671.12218 0,-125.28 q 0,-3.06 3.24,-3.06 1.98,0 5.58,6.48 l 55.08,109.08 0,-112.5 q 0,-3.06 3.24,-3.06 3.24,0 3.24,3.06 l 0,125.28 q 0,3.24 -3.24,3.24 -1.98,0 -5.22,-6.48 l -55.44,-109.26 0,112.5 q 0,3.24 -3.24,3.24 -3.24,0 -3.24,-3.24 z"
         style="font-style:normal;font-variant:normal;font-weight:200;font-stretch:normal;font-size:180px;line-height:125%;font-family:Dosis;-inkscape-font-specification:'Dosis, Ultra-Light';text-align:start;writing-mode:lr-tb;text-anchor:start;fill:#FFFFFF;fill-opacity:1;stroke:none;stroke-opacity:1"
         id="path4965"
         inkscape:connector-curvature="0" />
      <path
         d="m 670.78375,671.12218 0,-125.28 q 0,-3.06 3.24,-3.06 3.24,0 3.24,3.06 l 0,125.28 q 0,3.24 -3.24,3.24 -3.24,0 -3.24,-3.24 z"
         style="font-style:normal;font-variant:normal;font-weight:200;font-stretch:normal;font-size:180px;line-height:125%;font-family:Dosis;-inkscape-font-specification:'Dosis, Ultra-Light';text-align:start;writing-mode:lr-tb;text-anchor:start;fill:#FFFFFF;fill-opacity:1;stroke:none;stroke-opacity:1"
         id="path4967"
         inkscape:connector-curvature="0" />
      <path
         d="m 713.38312,638.36218 0,-58.5 q 0,-19.08 9.90001,-28.08 10.07999,-9 25.91999,-9 16.38,0 25.38,8.46 9.18,8.28 9.18,19.8 0,5.04 -3.23999,5.04 -3.24,0 -3.24,-3.24 -0.18001,-3.96 -1.44001,-7.38 -1.26,-3.6 -4.14,-7.56 -2.7,-3.96 -8.63999,-6.3 -5.76,-2.34 -14.04,-2.34 -29.16001,0 -29.16001,30.6 l 0,58.5 q 0,30.6 29.88,30.6 6.84,0 11.88,-1.62 5.04001,-1.8 7.56001,-3.78 2.7,-2.16 4.5,-5.94 1.98,-3.78 2.51999,-5.94 0.54,-2.34 1.08001,-6.3 0.36,-3.24 3.24,-3.24 3.23999,0 3.23999,5.22 0,11.16 -9.35999,19.62 -9.36,8.46 -25.74,8.46 -15.66001,0 -25.56001,-9 -9.72,-9 -9.72,-28.08 z"
         style="font-style:normal;font-variant:normal;font-weight:200;font-stretch:normal;font-size:180px;line-height:125%;font-family:Dosis;-inkscape-font-specification:'Dosis, Ultra-Light';text-align:start;writing-mode:lr-tb;text-anchor:start;fill:#FFFFFF;fill-opacity:1;stroke:none;stroke-opacity:1"
         id="path4969"
         inkscape:connector-curvature="0" />
    </g>
  </g>
</svg>
